# xmcd CD database file
#
# Track frame offsets:
#	150
#	12127
#	23630
#	33179
#	48420
#	59342
#	74062
#	88985
#	106330
#	116976
#	130615
#	148928
#	166067
#	182045
#	206165
#	238898
#
# Disc length: 3502 seconds
#
# Revision: 0
# Processed by: cddbd v1.5.1PL2 Copyright (c) Steve Scherf et al.
# Submitted via: CDex 1.51
#
DISCID=e80dac10
DTITLE=La locomotora negra - Ellington train extension
DYEAR=1999
DGENRE=Blues
TTITLE0=Doin' the voom
TTITLE1=Rent Party blues
TTITLE2=Double check stomp
TTITLE3=Azure
TTITLE4=Ring them bells
TTITLE5=Pyramid
TTITLE6=I let a song go out of my heart - Don't get arround much anymore
TTITLE7=It don't mean a thing
TTITLE8=It don't know what kind of blues I got
TTITLE9=Things ain't what they used to be
TTITLE10=I'm beginning to see the light
TTITLE11=Star crossed lovers
TTITLE12=Snibor
TTITLE13=Creole love call
TTITLE14=Medley: Everything but you - Sophisticated lady - In a sentimental mood - Prelude to a kiss - Dancers in love
TTITLE15=Satin doll
EXTD=YEAR: 1999
EXTT0=
EXTT1=
EXTT2=
EXTT3=
EXTT4=
EXTT5=
EXTT6=
EXTT7=
EXTT8=
EXTT9=
EXTT10=
EXTT11=
EXTT12=
EXTT13=
EXTT14=
EXTT15=
PLAYORDER=
